<?xml version="1.0" encoding="utf-8"?>
<!-- Generator: Adobe Illustrator 19.2.1, SVG Export Plug-In . SVG Version: 6.00 Build 0)  -->
<svg version="1.1" id="Слой_1" xmlns="http://www.w3.org/2000/svg" xmlns:xlink="http://www.w3.org/1999/xlink" x="0px" y="0px"
	 width="70px" height="70px" viewBox="0 0 70 70" style="enable-background:new 0 0 70 70;" xml:space="preserve">
<style type="text/css">
	.st0{fill:#00703C;}
</style>
<title>bonus-advantage</title>
<g>
	<path class="st0" d="M4.4,66.1c-0.1,0-0.3,0-0.4-0.1c-0.2-0.2-0.2-0.5,0-0.7L65.3,4c0.2-0.2,0.5-0.2,0.7,0s0.2,0.5,0,0.7L4.7,66
		C4.6,66.1,4.5,66.1,4.4,66.1z"/>
</g>
<g>
	<path class="st0" d="M10.9,1c5.5,0,9.9,4.5,9.9,9.9s-4.5,9.9-9.9,9.9S1,16.4,1,10.9C1,5.5,5.5,1,10.9,1 M10.9,0C4.9,0,0,4.9,0,10.9
		s4.9,10.9,10.9,10.9S21.9,17,21.9,10.9S17,0,10.9,0L10.9,0L10.9,0z"/>
</g>
<g>
	<path class="st0" d="M59.1,49.1c5.5,0,9.9,4.5,9.9,9.9S64.5,69,59.1,69s-9.9-4.5-9.9-9.9C49.1,53.6,53.6,49.1,59.1,49.1 M59.1,48.1
		c-6,0-10.9,4.9-10.9,10.9S53,70,59.1,70S70,65.1,70,59.1c0,0,0,0,0,0C70,53,65.1,48.1,59.1,48.1L59.1,48.1L59.1,48.1L59.1,48.1z"/>
</g>
</svg>
