<svg id="Слой_1" data-name="Слой 1" xmlns="http://www.w3.org/2000/svg" width="70" height="50" viewBox="0 0 70 50"><defs><style>.cls-1{fill:#00703c;}.cls-2{fill:#fff;}</style></defs><title>add-funds-advantage</title><rect class="cls-1" width="60" height="40" rx="6" ry="6"/><rect class="cls-2" x="1" y="1" width="58" height="38" rx="5" ry="5"/><rect class="cls-1" x="1" y="10" width="58" height="1"/><rect class="cls-1" x="1" y="16" width="58" height="1"/><rect class="cls-1" x="6" y="22" width="10" height="1"/><rect class="cls-1" x="6" y="27" width="5" height="1"/><rect class="cls-1" x="21" y="22" width="5" height="1"/><path class="cls-1" d="M647,417c-4.42,0-8,1.12-8,2.5v4c0,1.38,3.58,2.5,8,2.5s8-1.12,8-2.5v-4C655,418.12,651.42,417,647,417Z" transform="translate(-600 -376)"/><path class="cls-2" d="M647,425c-4.43,0-6.81-1.12-7-1.56V419.5c0.19-.38,2.57-1.5,7-1.5s6.81,1.12,7,1.56v3.94C653.81,423.88,651.43,425,647,425Z" transform="translate(-600 -376)"/><ellipse class="cls-1" cx="47" cy="43.5" rx="8" ry="2.5"/><path class="cls-2" d="M647,421c-4.25,0-6.61-1-7-1.5,0.37-.48,2.73-1.5,7-1.5s6.61,1,7,1.5C653.61,420,651.25,421,647,421Z" transform="translate(-600 -376)"/><path class="cls-1" d="M647,413c-4.42,0-8,1.12-8,2.5v4c0,1.38,3.58,2.5,8,2.5s8-1.12,8-2.5v-4C655,414.12,651.42,413,647,413Z" transform="translate(-600 -376)"/><path class="cls-2" d="M647,421c-4.43,0-6.81-1.12-7-1.56V415.5c0.19-.38,2.57-1.5,7-1.5s6.81,1.12,7,1.56v3.94C653.81,419.88,651.43,421,647,421Z" transform="translate(-600 -376)"/><ellipse class="cls-1" cx="47" cy="39.5" rx="8" ry="2.5"/><path class="cls-2" d="M647,417c-4.25,0-6.61-1-7-1.5,0.37-.48,2.73-1.5,7-1.5s6.61,1,7,1.5C653.61,416,651.25,417,647,417Z" transform="translate(-600 -376)"/><path class="cls-1" d="M647,409c-4.42,0-8,1.12-8,2.5v4c0,1.38,3.58,2.5,8,2.5s8-1.12,8-2.5v-4C655,410.12,651.42,409,647,409Z" transform="translate(-600 -376)"/><path class="cls-2" d="M647,417c-4.43,0-6.81-1.12-7-1.56V411.5c0.19-.38,2.57-1.5,7-1.5s6.81,1.12,7,1.56v3.94C653.81,415.88,651.43,417,647,417Z" transform="translate(-600 -376)"/><ellipse class="cls-1" cx="47" cy="35.5" rx="8" ry="2.5"/><path class="cls-2" d="M647,413c-4.25,0-6.61-1-7-1.5,0.37-.48,2.73-1.5,7-1.5s6.61,1,7,1.5C653.61,412,651.25,413,647,413Z" transform="translate(-600 -376)"/><path class="cls-1" d="M662,417c-4.42,0-8,1.12-8,2.5v4c0,1.38,3.58,2.5,8,2.5s8-1.12,8-2.5v-4C670,418.12,666.42,417,662,417Z" transform="translate(-600 -376)"/><path class="cls-2" d="M662,425c-4.43,0-6.81-1.12-7-1.56V419.5c0.19-.38,2.57-1.5,7-1.5s6.81,1.12,7,1.56v3.94C668.81,423.88,666.43,425,662,425Z" transform="translate(-600 -376)"/><ellipse class="cls-1" cx="62" cy="43.5" rx="8" ry="2.5"/><path class="cls-2" d="M662,421c-4.25,0-6.61-1-7-1.5,0.37-.48,2.73-1.5,7-1.5s6.61,1,7,1.5C668.61,420,666.25,421,662,421Z" transform="translate(-600 -376)"/><path class="cls-1" d="M662,413c-4.42,0-8,1.12-8,2.5v4c0,1.38,3.58,2.5,8,2.5s8-1.12,8-2.5v-4C670,414.12,666.42,413,662,413Z" transform="translate(-600 -376)"/><path class="cls-2" d="M662,421c-4.43,0-6.81-1.12-7-1.56V415.5c0.19-.38,2.57-1.5,7-1.5s6.81,1.12,7,1.56v3.94C668.81,419.88,666.43,421,662,421Z" transform="translate(-600 -376)"/><ellipse class="cls-1" cx="62" cy="39.5" rx="8" ry="2.5"/><path class="cls-2" d="M662,417c-4.25,0-6.61-1-7-1.5,0.37-.48,2.73-1.5,7-1.5s6.61,1,7,1.5C668.61,416,666.25,417,662,417Z" transform="translate(-600 -376)"/><path class="cls-1" d="M662,409c-4.42,0-8,1.12-8,2.5v4c0,1.38,3.58,2.5,8,2.5s8-1.12,8-2.5v-4C670,410.12,666.42,409,662,409Z" transform="translate(-600 -376)"/><path class="cls-2" d="M662,417c-4.43,0-6.81-1.12-7-1.56V411.5c0.19-.38,2.57-1.5,7-1.5s6.81,1.12,7,1.56v3.94C668.81,415.88,666.43,417,662,417Z" transform="translate(-600 -376)"/><ellipse class="cls-1" cx="62" cy="35.5" rx="8" ry="2.5"/><path class="cls-2" d="M662,413c-4.25,0-6.61-1-7-1.5,0.37-.48,2.73-1.5,7-1.5s6.61,1,7,1.5C668.61,412,666.25,413,662,413Z" transform="translate(-600 -376)"/><path class="cls-1" d="M662,405c-4.42,0-8,1.12-8,2.5v4c0,1.38,3.58,2.5,8,2.5s8-1.12,8-2.5v-4C670,406.12,666.42,405,662,405Z" transform="translate(-600 -376)"/><path class="cls-2" d="M662,413c-4.43,0-6.81-1.12-7-1.56V407.5c0.19-.38,2.57-1.5,7-1.5s6.81,1.12,7,1.56v3.94C668.81,411.88,666.43,413,662,413Z" transform="translate(-600 -376)"/><ellipse class="cls-1" cx="62" cy="31.5" rx="8" ry="2.5"/><path class="cls-2" d="M662,409c-4.25,0-6.61-1-7-1.5,0.37-.48,2.73-1.5,7-1.5s6.61,1,7,1.5C668.61,408,666.25,409,662,409Z" transform="translate(-600 -376)"/><path class="cls-1" d="M662,401c-4.42,0-8,1.12-8,2.5v4c0,1.38,3.58,2.5,8,2.5s8-1.12,8-2.5v-4C670,402.12,666.42,401,662,401Z" transform="translate(-600 -376)"/><path class="cls-2" d="M662,409c-4.43,0-6.81-1.12-7-1.56V403.5c0.19-.38,2.57-1.5,7-1.5s6.81,1.12,7,1.56v3.94C668.81,407.88,666.43,409,662,409Z" transform="translate(-600 -376)"/><ellipse class="cls-1" cx="62" cy="27.5" rx="8" ry="2.5"/><path class="cls-2" d="M662,405c-4.25,0-6.61-1-7-1.5,0.37-.48,2.73-1.5,7-1.5s6.61,1,7,1.5C668.61,404,666.25,405,662,405Z" transform="translate(-600 -376)"/><path class="cls-1" d="M662,397c-4.42,0-8,1.12-8,2.5v4c0,1.38,3.58,2.5,8,2.5s8-1.12,8-2.5v-4C670,398.12,666.42,397,662,397Z" transform="translate(-600 -376)"/><path class="cls-2" d="M662,405c-4.43,0-6.81-1.12-7-1.56V399.5c0.19-.38,2.57-1.5,7-1.5s6.81,1.12,7,1.56v3.94C668.81,403.88,666.43,405,662,405Z" transform="translate(-600 -376)"/><ellipse class="cls-1" cx="62" cy="23.5" rx="8" ry="2.5"/><path class="cls-2" d="M662,401c-4.25,0-6.61-1-7-1.5,0.37-.48,2.73-1.5,7-1.5s6.61,1,7,1.5C668.61,400,666.25,401,662,401Z" transform="translate(-600 -376)"/></svg>