<?xml version="1.0" encoding="utf-8"?>
<!-- Generator: Adobe Illustrator 19.2.1, SVG Export Plug-In . SVG Version: 6.00 Build 0)  -->
<svg version="1.1" id="Слой_1" xmlns="http://www.w3.org/2000/svg" xmlns:xlink="http://www.w3.org/1999/xlink" x="0px" y="0px"
	 width="70px" height="70px" viewBox="0 0 70 70" style="enable-background:new 0 0 70 70;" xml:space="preserve">
<style type="text/css">
	.st0{fill:#00703C;}
</style>
<title>time-advantage</title>
<g>
	<path class="st0" d="M35,1c18.8,0,34,15.2,34,34S53.8,69,35,69S1,53.8,1,35S16.2,1,35,1 M35,0C15.7,0,0,15.7,0,35s15.7,35,35,35
		s35-15.7,35-35l0,0C70,15.7,54.3,0,35,0L35,0z"/>
</g>
<g>
	<path class="st0" d="M45.5,46c-0.1,0-0.3,0-0.4-0.1L34.6,35.4c-0.1-0.1-0.1-0.2-0.1-0.4V14c0-0.3,0.2-0.5,0.5-0.5s0.5,0.2,0.5,0.5
		v20.8l10.4,10.4c0.2,0.2,0.2,0.5,0,0.7C45.8,46,45.6,46,45.5,46z"/>
</g>
</svg>
