<svg id="Слой_1" data-name="Слой 1" xmlns="http://www.w3.org/2000/svg" width="70" height="70" viewBox="0 0 70 70"><defs><style>.cls-1{fill:#00703c;}</style></defs><title>foreign-currency-advantage</title><path class="cls-1" d="M637,397a34,34,0,1,1-34,34,34,34,0,0,1,34-34m0-1a35,35,0,1,0,35,35,35,35,0,0,0-35-35h0Z" transform="translate(-602 -396)"/><path class="cls-1" d="M624.5,434.16v1.06h-5.66v2.3h-1.3v-2.3h-1.66v-1.06h1.66v-2.38h-1.66v-1.06h1.66v-6.78a11.61,11.61,0,0,1,1.78-.3q0.9-.08,1.66-0.08a6.09,6.09,0,0,1,3.93,1.09,3.77,3.77,0,0,1,1.33,3.09,4,4,0,0,1-.41,1.91,3.27,3.27,0,0,1-1.18,1.25,5.27,5.27,0,0,1-1.85.68,13.18,13.18,0,0,1-2.4.2h-1.56v2.38h5.66ZM621,424.7q-1,0-1.47.05a5.66,5.66,0,0,0-.67.09v5.88h1.42a12.83,12.83,0,0,0,1.93-.13,4.1,4.1,0,0,0,1.44-.47,2.39,2.39,0,0,0,.91-0.91,3,3,0,0,0,.32-1.47,3.07,3.07,0,0,0-.33-1.51,2.54,2.54,0,0,0-.87-0.93,3.51,3.51,0,0,0-1.24-.47A7.94,7.94,0,0,0,621,424.7Z" transform="translate(-602 -396)"/><path class="cls-1" d="M637.64,439.7h-1.18v-2.58a8.38,8.38,0,0,1-2.26-.29,6.38,6.38,0,0,1-1.34-.53l0.38-1.12,0.58,0.28a6,6,0,0,0,.74.26,6.47,6.47,0,0,0,1,.19,10.32,10.32,0,0,0,1.29.07,4.82,4.82,0,0,0,1.33-.16,2.71,2.71,0,0,0,.9-0.43,1.51,1.51,0,0,0,.5-0.65,2.14,2.14,0,0,0,.15-0.8,2.18,2.18,0,0,0-.25-1.09,2.46,2.46,0,0,0-.7-0.77,4.93,4.93,0,0,0-1.09-.58l-1.4-.54q-0.54-.2-1.1-0.46a4.49,4.49,0,0,1-1-.62,2.92,2.92,0,0,1-.73-0.9,2.68,2.68,0,0,1-.28-1.27,3.1,3.1,0,0,1,.81-2.29,4.31,4.31,0,0,1,2.51-1V422h1.18v2.32a7.8,7.8,0,0,1,2.84.56l-0.34,1.1a10.45,10.45,0,0,0-1-.33,6.7,6.7,0,0,0-1.78-.19q-2.84,0-2.84,2.06a1.94,1.94,0,0,0,.2.93,2,2,0,0,0,.58.65,4.25,4.25,0,0,0,.92.5l1.2,0.46q0.72,0.28,1.39.57a4.91,4.91,0,0,1,1.18.71,3.09,3.09,0,0,1,.81,1,3.24,3.24,0,0,1,.3,1.46,3,3,0,0,1-.92,2.26,4,4,0,0,1-2.54,1v2.64Z" transform="translate(-602 -396)"/><path class="cls-1" d="M651.38,429.34c0,0.21,0,.43,0,0.64s0,0.42,0,.62v0.56c0,0.19,0,.37,0,0.56h4.26l-0.22,1.06h-3.94a8.38,8.38,0,0,0,.36,1.45,3.85,3.85,0,0,0,.67,1.21,3.15,3.15,0,0,0,1.11.84,3.87,3.87,0,0,0,1.66.32,6,6,0,0,0,1.53-.17,4.49,4.49,0,0,0,1-.37l0.3,1.12a2.79,2.79,0,0,1-.42.18,6.35,6.35,0,0,1-.66.19c-0.25.06-.53,0.11-0.84,0.16a6.35,6.35,0,0,1-.94.07,5.48,5.48,0,0,1-2.21-.4,4.36,4.36,0,0,1-1.52-1.08,5.09,5.09,0,0,1-1-1.59,8.7,8.7,0,0,1-.49-1.93H648.1v-1.06h1.82c0-.19,0-0.37,0-0.56V430.6q0-.62.06-1.26H648.1v-1.06h2a9.36,9.36,0,0,1,.54-1.86,5.11,5.11,0,0,1,1-1.55,4.5,4.5,0,0,1,1.5-1.06,5.16,5.16,0,0,1,2.1-.39q0.44,0,.79,0l0.64,0.08a5,5,0,0,1,.56.13l0.55,0.18L657.42,425a5.25,5.25,0,0,0-1.08-.31,6.35,6.35,0,0,0-1.14-.11,3.6,3.6,0,0,0-1.54.3,3.08,3.08,0,0,0-1.07.81,4.09,4.09,0,0,0-.69,1.18,7,7,0,0,0-.38,1.41h4.78l-0.2,1.06h-4.72Z" transform="translate(-602 -396)"/></svg>