<?xml version="1.0" encoding="utf-8"?>
<!-- Generator: Adobe Illustrator 19.2.1, SVG Export Plug-In . SVG Version: 6.00 Build 0)  -->
<svg version="1.1" id="Layer_1" xmlns="http://www.w3.org/2000/svg" xmlns:xlink="http://www.w3.org/1999/xlink" x="0px" y="0px"
	 width="70px" height="70px" viewBox="0 0 70 70" style="enable-background:new 0 0 70 70;" xml:space="preserve">
<style type="text/css">
	.st0{fill:#00703C;}
	.st1{fill:#FFFFFF;}
</style>
<title>card-transfer-advantage</title>
<g>
	<g>
		<path class="st0" d="M3.5,0h28c2,0.1,3.6,1.7,3.5,3.8v17.4c0.1,2-1.5,3.7-3.5,3.8h-28c-2-0.1-3.6-1.7-3.5-3.8V3.8
			C-0.1,1.7,1.5,0.1,3.5,0z"/>
	</g>
</g>
<g>
	<g>
		<path class="st1" d="M3.5,23.9c-1.4-0.1-2.6-1.3-2.5-2.8V3.8C0.9,2.3,2.1,1.1,3.5,1h28c1.4,0.1,2.6,1.3,2.5,2.8v17.4
			c0.1,1.4-1.1,2.7-2.5,2.8L3.5,23.9L3.5,23.9z"/>
	</g>
</g>
<g>
	<g>
		<rect x="1" y="6" class="st0" width="33" height="1"/>
	</g>
</g>
<g>
	<g>
		<rect x="1" y="9" class="st0" width="33" height="1"/>
	</g>
</g>
<g>
	<g>
		<rect x="4" y="13" class="st0" width="8" height="1"/>
	</g>
</g>
<g>
	<g>
		<rect x="4" y="17" class="st0" width="3" height="1"/>
	</g>
</g>
<g>
	<g>
		<rect x="15" y="13" class="st0" width="3" height="1"/>
	</g>
</g>
<g>
	<g>
		<path class="st0" d="M38.5,45h28c2,0.1,3.6,1.7,3.5,3.8v17.4c0.1,2-1.5,3.7-3.5,3.8h-28c-2-0.1-3.6-1.7-3.5-3.8V48.8
			C34.9,46.7,36.5,45.1,38.5,45z"/>
	</g>
</g>
<g>
	<g>
		<path class="st1" d="M38.5,68.9c-1.4-0.1-2.6-1.3-2.5-2.8V48.8c-0.1-1.4,1.1-2.7,2.5-2.8h28c1.4,0.1,2.6,1.3,2.5,2.8v17.4
			c0.1,1.4-1.1,2.7-2.5,2.8L38.5,68.9L38.5,68.9z"/>
	</g>
</g>
<g>
	<g>
		<rect x="36" y="51" class="st0" width="33" height="1"/>
	</g>
</g>
<g>
	<g>
		<rect x="36" y="54" class="st0" width="33" height="1"/>
	</g>
</g>
<g>
	<g>
		<rect x="39" y="58" class="st0" width="8" height="1"/>
	</g>
</g>
<g>
	<g>
		<rect x="39" y="62" class="st0" width="3" height="1"/>
	</g>
</g>
<g>
	<g>
		<rect x="50" y="58" class="st0" width="3" height="1"/>
	</g>
</g>
<path class="st0" d="M41.5,12H40v1h1.5C50,13,57,20,57,28.5V30v10h1V30v-1.5C58,19.4,50.6,12,41.5,12z"/>
<g>
	<polygon class="st0" points="57.5,40.2 53.6,36.4 54.4,35.6 57.5,38.8 60.6,35.6 61.4,36.4 	"/>
</g>
</svg>
