<svg id="Слой_1" data-name="Слой 1" xmlns="http://www.w3.org/2000/svg" width="17" height="10" viewBox="0 0 17 10"><defs><style>.cls-1{fill:#666;}</style></defs><title>vk</title><path class="cls-1" d="M634.12,401.9s2.24-3.17,2.46-4.22a0.43,0.43,0,0,0-.47-0.58h-1.94a0.71,0.71,0,0,0-.74.48,17.7,17.7,0,0,1-2.33,3.67,1.27,1.27,0,0,1-.85.6c-0.18,0-.27-0.15-0.27-0.57v-3.62c0-.51-0.06-0.66-0.47-0.66h-3.12a0.34,0.34,0,0,0-.39.33c0,0.48.73,0.58,0.73,1.88v2.67c0,0.54,0,.75-0.28.75-0.67,0-2.25-2.31-3.14-4.93a0.78,0.78,0,0,0-.88-0.69h-1.94a0.46,0.46,0,0,0-.49.48c0,0.52.61,2.94,3,6.17A7.36,7.36,0,0,0,628.6,407c1.16,0,1.44-.19,1.44-0.69v-1.67c0-.42.16-0.6,0.4-0.6s0.74,0.09,1.84,1.18c1.31,1.25,1.39,1.77,2.11,1.77h2.18a0.4,0.4,0,0,0,.43-0.48,5.29,5.29,0,0,0-1.62-2.41c-0.4-.54-1.05-1.12-1.26-1.39A0.54,0.54,0,0,1,634.12,401.9Z" transform="translate(-620 -397)"/></svg>