<svg id="Layer_1" data-name="Layer 1" xmlns="http://www.w3.org/2000/svg" width="61" height="30" viewBox="0 0 61 30"><defs><style>.cls-1{fill:#f2f2f2}</style></defs><title>arrow-down-slider</title><path class="cls-1" d="M685 431a30.5 30.5 0 0 0-61 0h61z" transform="translate(-624 -401)"/><path d="M30 20h1v1h-1zM29 19h1v1h-1zM31 19h1v1h-1zM32 18h1v1h-1zM33 17h1v1h-1z"/><path transform="rotate(180 340.5 219)" d="M652 419h1v1h-1z"/><path transform="rotate(180 339.5 218)" d="M651 418h1v1h-1z"/><path d="M34 16h1v1h-1zM35 15h1v1h-1zM36 14h1v1h-1zM37 13h1v1h-1zM38 12h1v1h-1z"/><path transform="rotate(180 338.5 217)" d="M650 417h1v1h-1z"/><path transform="rotate(180 337.5 216)" d="M649 416h1v1h-1z"/><path transform="rotate(180 336.5 215)" d="M648 415h1v1h-1z"/><path transform="rotate(180 335.5 214)" d="M647 414h1v1h-1z"/><path transform="rotate(180 334.5 213)" d="M646 413h1v1h-1z"/></svg>