<svg id="Слой_1" data-name="Слой 1" xmlns="http://www.w3.org/2000/svg" width="16" height="16" viewBox="0 0 16 16"><defs><style>.cls-1{fill:#666;}</style></defs><title>search</title><rect class="cls-1" x="14" y="14" width="2" height="2"/><rect class="cls-1" x="13" y="13" width="2" height="2"/><rect class="cls-1" x="12" y="12" width="2" height="2"/><rect class="cls-1" x="11" y="11" width="2" height="2"/><rect class="cls-1" x="10" y="10" width="2" height="2"/><rect class="cls-1" x="9" y="9" width="2" height="2"/><path class="cls-1" d="M641,395a6,6,0,1,0,6,6A6,6,0,0,0,641,395Zm0,10a4,4,0,1,1,4-4A4,4,0,0,1,641,405Z" transform="translate(-635 -395)"/></svg>