<svg id="Layer_1" data-name="Layer 1" xmlns="http://www.w3.org/2000/svg" width="20" height="39" viewBox="0 0 20 39"><defs><style>.cls-1{fill:#fff}</style></defs><title>arrow-right</title><path class="cls-1" d="M4 34h1v1H4zM3 35h1v1H3zM2 36h1v1H2zM1 37h1v1H1zM0 38h1v1H0zM5 33h1v1H5zM6 32h1v1H6zM7 31h1v1H7zM8 30h1v1H8zM9 29h1v1H9zM10 28h1v1h-1zM11 27h1v1h-1zM12 26h1v1h-1zM13 25h1v1h-1zM14 24h1v1h-1zM15 23h1v1h-1zM16 22h1v1h-1zM17 21h1v1h-1zM18 20h1v1h-1zM19 19h1v1h-1z"/><path class="cls-1" transform="rotate(-180 336.5 211.5)" d="M653 403h1v1h-1z"/><path class="cls-1" transform="rotate(-180 335.5 210.5)" d="M652 402h1v1h-1z"/><path class="cls-1" transform="rotate(-180 334.5 209.5)" d="M651 401h1v1h-1z"/><path class="cls-1" transform="rotate(-180 333.5 208.5)" d="M650 400h1v1h-1z"/><path class="cls-1" transform="rotate(-180 332.5 207.5)" d="M649 399h1v1h-1z"/><path class="cls-1" transform="rotate(-180 331.5 206.5)" d="M648 398h1v1h-1z"/><path class="cls-1" transform="rotate(-180 330.5 205.5)" d="M647 397h1v1h-1z"/><path class="cls-1" transform="rotate(-180 329.5 204.5)" d="M646 396h1v1h-1z"/><path class="cls-1" transform="rotate(-180 328.5 203.5)" d="M645 395h1v1h-1z"/><path class="cls-1" transform="rotate(-180 327.5 202.5)" d="M644 394h1v1h-1z"/><path class="cls-1" transform="rotate(-180 326.5 201.5)" d="M643 393h1v1h-1z"/><path class="cls-1" transform="rotate(-180 325.5 200.5)" d="M642 392h1v1h-1z"/><path class="cls-1" transform="rotate(-180 324.5 199.5)" d="M641 391h1v1h-1z"/><path class="cls-1" transform="rotate(-180 323.5 198.5)" d="M640 390h1v1h-1z"/><path class="cls-1" transform="rotate(-180 322.5 197.5)" d="M639 389h1v1h-1z"/><path class="cls-1" transform="rotate(-180 321.5 196.5)" d="M638 388h1v1h-1z"/><path class="cls-1" transform="rotate(-180 320.5 195.5)" d="M637 387h1v1h-1z"/><path class="cls-1" transform="rotate(-180 319.5 194.5)" d="M636 386h1v1h-1z"/><path class="cls-1" transform="rotate(-180 318.5 193.5)" d="M635 385h1v1h-1z"/><path class="cls-1" transform="rotate(-180 317.5 192.5)" d="M634 384h1v1h-1z"/></svg>